<svg xmlns="http://www.w3.org/2000/svg" width="24" height="14" viewBox="0 0 24 14" fill="none">
<path d="M22.5608 5.75615L13.7076 0.459271C13.4885 0.326005 13.2378 0.254002 12.9814 0.250786C12.725 0.247571 12.4725 0.313259 12.2502 0.440989C12.009 0.581445 11.8093 0.78323 11.6713 1.02585C11.5333 1.26848 11.462 1.54329 11.4646 1.8224V5.52786L2.99335 0.457864C2.77433 0.324598 2.52353 0.252596 2.26718 0.24938C2.01082 0.246164 1.7583 0.311853 1.536 0.439583C1.2948 0.580038 1.09507 0.781824 0.957087 1.02445C0.819104 1.26707 0.747786 1.54189 0.750378 1.82099V12.1804C0.747703 12.4595 0.818981 12.7345 0.956968 12.9772C1.09496 13.2199 1.29473 13.4217 1.536 13.5622C1.7583 13.69 2.01082 13.7557 2.26718 13.7524C2.52353 13.7492 2.77433 13.6772 2.99335 13.544L11.4646 8.47161V12.1785C11.4616 12.458 11.5327 12.7333 11.6707 12.9764C11.8087 13.2194 12.0087 13.4216 12.2502 13.5622C12.4725 13.69 12.725 13.7557 12.9814 13.7524C13.2378 13.7492 13.4885 13.6772 13.7076 13.544L22.5608 8.24708C22.7713 8.11524 22.9448 7.93209 23.0651 7.71481C23.1854 7.49753 23.2485 7.25325 23.2485 7.00489C23.2485 6.75654 23.1854 6.51226 23.0651 6.29498C22.9448 6.0777 22.7713 5.89455 22.5608 5.76271V5.75615Z" fill="#FFFFFF"/>
</svg>