<svg xmlns="http://www.w3.org/2000/svg" width="16" height="18" viewBox="0 0 16 18" fill="none">
<path d="M2.23531 17.6248C1.9475 17.6243 1.6648 17.5489 1.415 17.4059C0.852495 17.0872 0.502808 16.4684 0.502808 15.7967V2.20296C0.502808 1.52937 0.852495 0.912495 1.415 0.593745C1.67075 0.446762 1.96128 0.371176 2.25624 0.374886C2.5512 0.378597 2.83974 0.461468 3.09171 0.614839L14.7097 7.56921C14.9518 7.72104 15.1514 7.93187 15.2898 8.18193C15.4281 8.432 15.5007 8.71311 15.5007 8.9989C15.5007 9.28469 15.4281 9.5658 15.2898 9.81587C15.1514 10.0659 14.9518 10.2768 14.7097 10.4286L3.08984 17.3848C2.83198 17.5407 2.53663 17.6237 2.23531 17.6248Z" fill="#FFFFFF"/>
</svg>