<svg xmlns="http://www.w3.org/2000/svg" width="24" height="14" viewBox="0 0 24 14" fill="none">
<path d="M1.43863 5.75615L10.2919 0.459271C10.5109 0.326005 10.7617 0.254002 11.0181 0.250786C11.2744 0.247571 11.527 0.313259 11.7493 0.440989C11.9905 0.581445 12.1902 0.78323 12.3282 1.02585C12.4662 1.26848 12.5375 1.54329 12.5349 1.8224V5.52786L21.0061 0.457864C21.2251 0.324598 21.4759 0.252596 21.7323 0.24938C21.9887 0.246164 22.2412 0.311853 22.4635 0.439583C22.7047 0.580038 22.9044 0.781824 23.0424 1.02445C23.1804 1.26707 23.2517 1.54189 23.2491 1.82099V12.1804C23.2518 12.4596 23.1806 12.7345 23.0426 12.9772C22.9046 13.2199 22.7048 13.4218 22.4635 13.5622C22.2412 13.69 21.9887 13.7557 21.7323 13.7524C21.4759 13.7492 21.2251 13.6772 21.0061 13.544L12.5349 8.47161V12.1785C12.5379 12.458 12.4668 12.7333 12.3288 12.9764C12.1908 13.2195 11.9908 13.4216 11.7493 13.5622C11.527 13.69 11.2744 13.7557 11.0181 13.7524C10.7617 13.7492 10.5109 13.6772 10.2919 13.544L1.43863 8.24708C1.22816 8.11524 1.05464 7.93209 0.934361 7.71481C0.814079 7.49753 0.750977 7.25325 0.750977 7.00489C0.750977 6.75654 0.814079 6.51226 0.934361 6.29498C1.05464 6.0777 1.22816 5.89455 1.43863 5.76271V5.75615Z" fill="#FFFFFF"/>
</svg>